<?xml version="1.0" encoding="utf-8"?>
<!-- Generator: Adobe Illustrator 28.1.0, SVG Export Plug-In . SVG Version: 6.00 Build 0)  -->
<svg version="1.1" id="fence" xmlns="http://www.w3.org/2000/svg" xmlns:xlink="http://www.w3.org/1999/xlink" x="0px" y="0px"
	 viewBox="0 0 36.2 35.1" style="enable-background:new 0 0 36.2 35.1;" xml:space="preserve">
<style type="text/css">
	.st0{fill:#9D6F27;}
	.st1{fill:#5E3815;}
	.st2{fill:#4F4C4A;}
	.st3{fill:#3B3936;}
	.st4{fill:none;stroke:#8B4C14;stroke-width:0.125;stroke-miterlimit:10;}
</style>
<g>
	<rect x="1.7" y="0" class="st0" width="3.8" height="35.1"/>
	<rect x="8.9" class="st0" width="3.8" height="35.1"/>
	<rect x="16.2" class="st0" width="3.8" height="35.1"/>
	<rect x="23.4" class="st0" width="3.8" height="35.1"/>
	<rect x="30.6" class="st0" width="3.8" height="35.1"/>
	<path class="st1" d="M5.5,4.6v5.7L1.6,7.4l-1-2c0.1,0,0.5,0,1-0.1C2.9,5.1,4.7,4.8,5.5,4.6z"/>
	<path class="st1" d="M5.5,23.6v5.7l-3.9-2.9l-1-2c0.1,0,0.5,0,1-0.1C2.9,24.1,4.7,23.8,5.5,23.6z"/>
	<g>
		<path class="st1" d="M12.8,4.6v5.7L8.9,7.4l-1-2c0.1,0,0.5,0,1-0.1C10.1,5.1,11.9,4.8,12.8,4.6z"/>
		<path class="st1" d="M12.8,23.6v5.7l-3.9-2.9l-1-2c0.1,0,0.5,0,1-0.1C10.1,24.1,11.9,23.8,12.8,23.6z"/>
	</g>
	<g>
		<path class="st1" d="M20,4.6v5.7l-3.9-2.9l-1-2c0.1,0,0.5,0,1-0.1C17.3,5.1,19.2,4.8,20,4.6z"/>
		<path class="st1" d="M20,23.6v5.7l-3.9-2.9l-1-2c0.1,0,0.5,0,1-0.1C17.3,24.1,19.2,23.8,20,23.6z"/>
	</g>
	<g>
		<path class="st1" d="M27.2,4.6v5.7l-3.9-2.9l-1-2c0.1,0,0.5,0,1-0.1C24.6,5.1,26.4,4.8,27.2,4.6z"/>
		<path class="st1" d="M27.2,23.6v5.7l-3.9-2.9l-1-2c0.1,0,0.5,0,1-0.1C24.6,24.1,26.4,23.8,27.2,23.6z"/>
	</g>
	<g>
		<path class="st1" d="M34.5,4.6v5.7l-3.9-2.9l-1-2c0.1,0,0.5,0,1-0.1C31.8,5.1,33.6,4.8,34.5,4.6z"/>
		<path class="st1" d="M34.5,23.6v5.7l-3.9-2.9l-1-2c0.1,0,0.5,0,1-0.1C31.8,24.1,33.6,23.8,34.5,23.6z"/>
	</g>
	<rect y="3.8" class="st0" width="36.2" height="3.7"/>
	<rect y="22.8" class="st0" width="36.2" height="3.7"/>
	<g>
		<circle class="st2" cx="3.6" cy="5.4" r="0.6"/>
		<path class="st3" d="M4,5C4,5.1,4.1,5.2,4.1,5.3c0,0.3-0.3,0.6-0.6,0.6c-0.2,0-0.3,0-0.4-0.1C3.2,5.9,3.4,6,3.6,6
			c0.3,0,0.6-0.3,0.6-0.6C4.2,5.2,4.1,5.1,4,5z"/>
	</g>
	<g>
		<circle class="st2" cx="3.6" cy="24.8" r="0.6"/>
		<path class="st3" d="M4,24.4c0.1,0.1,0.1,0.2,0.1,0.3c0,0.3-0.3,0.6-0.6,0.6c-0.2,0-0.3,0-0.4-0.1c0.1,0.2,0.3,0.2,0.5,0.2
			c0.3,0,0.6-0.3,0.6-0.6C4.2,24.6,4.1,24.5,4,24.4z"/>
	</g>
	<g>
		<circle class="st2" cx="10.8" cy="5.4" r="0.6"/>
		<path class="st3" d="M11.2,5c0.1,0.1,0.1,0.2,0.1,0.3c0,0.3-0.3,0.6-0.6,0.6c-0.2,0-0.3,0-0.4-0.1C10.4,5.9,10.6,6,10.8,6
			c0.3,0,0.6-0.3,0.6-0.6C11.4,5.2,11.3,5.1,11.2,5z"/>
	</g>
	<g>
		<circle class="st2" cx="10.8" cy="24.8" r="0.6"/>
		<path class="st3" d="M11.2,24.4c0.1,0.1,0.1,0.2,0.1,0.3c0,0.3-0.3,0.6-0.6,0.6c-0.2,0-0.3,0-0.4-0.1c0.1,0.2,0.3,0.2,0.5,0.2
			c0.3,0,0.6-0.3,0.6-0.6C11.4,24.6,11.3,24.5,11.2,24.4z"/>
	</g>
	<g>
		<circle class="st2" cx="18" cy="5.4" r="0.6"/>
		<path class="st3" d="M18.4,5c0.1,0.1,0.1,0.2,0.1,0.3c0,0.3-0.3,0.6-0.6,0.6c-0.2,0-0.3,0-0.4-0.1C17.6,5.9,17.8,6,18,6
			c0.3,0,0.6-0.3,0.6-0.6C18.6,5.2,18.5,5.1,18.4,5z"/>
	</g>
	<g>
		<circle class="st2" cx="18" cy="24.8" r="0.6"/>
		<path class="st3" d="M18.4,24.4c0.1,0.1,0.1,0.2,0.1,0.3c0,0.3-0.3,0.6-0.6,0.6c-0.2,0-0.3,0-0.4-0.1c0.1,0.2,0.3,0.2,0.5,0.2
			c0.3,0,0.6-0.3,0.6-0.6C18.6,24.6,18.5,24.5,18.4,24.4z"/>
	</g>
	<g>
		<circle class="st2" cx="25.2" cy="5.4" r="0.6"/>
		<path class="st3" d="M25.6,5c0.1,0.1,0.1,0.2,0.1,0.3c0,0.3-0.3,0.6-0.6,0.6c-0.2,0-0.3,0-0.4-0.1C24.8,5.9,25,6,25.2,6
			c0.3,0,0.6-0.3,0.6-0.6C25.8,5.2,25.7,5.1,25.6,5z"/>
	</g>
	<g>
		<circle class="st2" cx="25.2" cy="24.8" r="0.6"/>
		<path class="st3" d="M25.6,24.4c0.1,0.1,0.1,0.2,0.1,0.3c0,0.3-0.3,0.6-0.6,0.6c-0.2,0-0.3,0-0.4-0.1c0.1,0.2,0.3,0.2,0.5,0.2
			c0.3,0,0.6-0.3,0.6-0.6C25.8,24.6,25.7,24.5,25.6,24.4z"/>
	</g>
	<g>
		<circle class="st2" cx="32.4" cy="5.4" r="0.6"/>
		<path class="st3" d="M32.8,5c0.1,0.1,0.1,0.2,0.1,0.3c0,0.3-0.3,0.6-0.6,0.6c-0.2,0-0.3,0-0.4-0.1C32,5.9,32.2,6,32.4,6
			C32.7,6,33,5.7,33,5.4C33,5.2,32.9,5.1,32.8,5z"/>
	</g>
	<g>
		<circle class="st2" cx="32.4" cy="24.8" r="0.6"/>
		<path class="st3" d="M32.8,24.4c0.1,0.1,0.1,0.2,0.1,0.3c0,0.3-0.3,0.6-0.6,0.6c-0.2,0-0.3,0-0.4-0.1c0.1,0.2,0.3,0.2,0.5,0.2
			c0.3,0,0.6-0.3,0.6-0.6C33,24.6,32.9,24.5,32.8,24.4z"/>
	</g>
	<line class="st4" x1="1.7" y1="3.8" x2="5.5" y2="3.8"/>
	<line class="st4" x1="8.9" y1="3.8" x2="12.8" y2="3.8"/>
	<line class="st4" x1="16.2" y1="3.8" x2="20" y2="3.8"/>
	<line class="st4" x1="23.4" y1="3.8" x2="27.2" y2="3.8"/>
	<line class="st4" x1="30.6" y1="3.8" x2="34.5" y2="3.8"/>
</g>
</svg>
