<?xml version="1.0" encoding="utf-8"?>
<!-- Generator: Adobe Illustrator 27.0.1, SVG Export Plug-In . SVG Version: 6.00 Build 0)  -->
<svg version="1.1" id="Layer_1" xmlns="http://www.w3.org/2000/svg" xmlns:xlink="http://www.w3.org/1999/xlink" x="0px" y="0px"
	 viewBox="0 0 100 109.96" style="enable-background:new 0 0 100 109.96;" xml:space="preserve">
<style type="text/css">
	.st0{fill:#096E31;}
	.st1{fill:none;stroke:#FFE012;stroke-width:4.3965;}
	.st2{fill:#FDC801;}
</style>
<g>
	<path class="st0" d="M47.35,108.49C11.77,88.77,2.16,62.17,0.36,43.32C-1.58,22.96,4.93,7.36,5.21,6.71l2.17-5.09l5.06,2.24
		c0.38,0.16,9.05,3.82,18.57,3.82c6.37,0,11.59-1.63,15.53-4.85L50,0l3.45,2.82c3.94,3.22,9.16,4.85,15.53,4.85
		c9.68,0,18.49-3.78,18.58-3.82l5.05-2.23l2.17,5.08c0.28,0.65,6.8,16.25,4.85,36.62c-1.8,18.85-11.41,45.45-46.99,65.17L50,109.96
		L47.35,108.49z"/>
	<path class="st1" d="M89.77,8.85c0,0-24.36,10.79-39.77-1.8c-15.4,12.59-39.77,1.8-39.77,1.8S-14.86,67.77,50,103.72
		C114.86,67.77,89.77,8.85,89.77,8.85z"/>
	<path class="st2" d="M50,106.23l-1.07-0.59C14.59,86.61,5.33,61.08,3.61,43.01C1.74,23.46,7.95,8.61,8.21,7.99l0.87-2.05l2.04,0.9
		c0.23,0.1,23.33,10.08,37.49-1.49L50,4.21l1.39,1.14c14.16,11.57,37.26,1.59,37.49,1.49l2.04-0.9l0.87,2.05
		c0.27,0.62,6.47,15.47,4.6,35.03c-1.72,18.07-10.99,43.6-45.33,62.63L50,106.23z M11.52,11.71C9.96,16.31,6.58,28.31,8,42.78
		c2.39,24.33,16.51,43.98,42,58.42c25.49-14.44,39.61-34.09,42-58.42c1.42-14.47-1.96-26.47-3.52-31.07
		c-2.54,0.93-7.09,2.37-12.52,3.13C65.59,16.3,56.66,14.56,50,9.81c-6.66,4.75-15.59,6.49-25.96,5.03
		C18.61,14.08,14.06,12.64,11.52,11.71z"/>
	<g>
		<path class="st0" d="M50.08,4.08l8.57,21.25h-6.17v9.92h13.77v-6.17l21.25,8.57l-21.25,8.57v-6.17H52.48v44.94h6.17l-8.57,21.25
			l-8.57-21.25h6.17V40.04H33.34v6.17l-21.25-8.57l21.25-8.57v6.17h14.35v-9.92h-6.17L50.08,4.08 M50.08,1.2l-1,2.47l-8.57,21.25
			l-0.6,1.48h1.59h5.09v7.76H34.41v-5.09v-1.59l-1.48,0.6l-21.25,8.57l-2.47,1l2.47,1l21.25,8.57l1.48,0.6v-1.59v-5.09h12.19V83.9
			h-5.09h-1.59l0.6,1.48l8.57,21.25l1,2.47l1-2.47l8.57-21.25l0.6-1.48h-1.59h-5.09V41.12h11.61v5.09v1.59l1.48-0.6l21.25-8.57
			l2.47-1l-2.47-1l-21.25-8.57l-1.48-0.6v1.59v5.09H53.56v-7.76h5.09h1.59l-0.6-1.48L51.08,3.67L50.08,1.2L50.08,1.2z"/>
	</g>
	<polygon class="st2" points="87.5,37.64 66.25,29.07 66.25,35.25 52.48,35.25 52.48,25.33 58.65,25.33 50.08,4.08 41.51,25.33 
		47.68,25.33 47.68,35.25 33.34,35.25 33.34,29.07 12.08,37.64 33.34,46.22 33.34,40.04 47.68,40.04 47.68,84.98 41.51,84.98 
		50.08,106.23 58.65,84.98 52.48,84.98 52.48,40.04 66.25,40.04 66.25,46.22 	"/>
</g>
</svg>
