<?xml version="1.0" encoding="utf-8"?>
<!-- Generator: Adobe Illustrator 28.1.0, SVG Export Plug-In . SVG Version: 6.00 Build 0)  -->
<svg version="1.1" id="Layer_1" xmlns="http://www.w3.org/2000/svg" xmlns:xlink="http://www.w3.org/1999/xlink" x="0px" y="0px"
	 viewBox="0 0 79 66.6" style="enable-background:new 0 0 79 66.6;" xml:space="preserve">
<style type="text/css">
	.st0{fill:#0C0605;}
	.st1{fill:#1D0907;}
	.st2{fill:#843B13;}
	.st3{fill:#575254;}
	.st4{fill:#9A4616;}
	.st5{fill:#E9AC96;}
	.st6{fill:#342523;}
	.st7{fill:#010101;}
	.st8{fill:#FCF9ED;}
	.st9{fill:#FCDC7D;}
	.st10{fill:#D5C6A8;}
	.st11{fill:#A25D3C;}
	.st12{fill:#F4CAAC;}
	.st13{fill:#C07366;}
	.st14{fill:#DFE0E1;}
</style>
<g>
	<g>
		<path class="st0" d="M56.2,42.2c1,3.5,0,3.6,0,3.8c0,0.3,0.5,1,0.4,1.4c0,0.1-1,1.2-1,1.4c-0.3,1.3,0,11.5,0.4,12.6
			c-1.1,0.3-2.2,0.5-3.3,0c0-0.6,1-6.9,0.4-10.9c-0.2-1.3-1.3-2.2-1.3-2.6c0-0.4,0.5-0.9,0.4-1.2c-0.1-0.3-3-1.3-1.9-6.1
			C51.2,43.8,54.9,44.2,56.2,42.2z"/>
		<g>
			<path class="st1" d="M52.7,62c1.1,0.1,3,0.7,3.6-0.1c2,1,3.6,2.2,0.9,2.6C55.4,64.8,53,64.2,52.7,62z"/>
			<path class="st2" d="M56.1,61.6c0.1,0.1,0.1,0.1,0.3,0.3c-0.6,0.9-2.5,0.3-3.6,0.1c0-0.1,0-0.3,0-0.4
				C53.8,62.1,54.9,61.9,56.1,61.6z"/>
			<path class="st3" d="M57.7,63.3c0.4-0.1,0.5,0.8,0.1,0.2C57.7,63.4,57.6,63.4,57.7,63.3z"/>
		</g>
	</g>
	<g>
		<path class="st0" d="M22.8,41.3c0,0.7-1.5,2.6-1.6,3c-0.3,1.7,0.2,14.1,0.7,16.2c-0.5,0.1-0.6-0.2-0.6-0.2c0,0-0.2,0.4-0.4,0.7
			c-2.9,0.3-0.2,2.5,0.9,3.3c-1.4-0.1-3.3-1.2-3.6-2.7c-0.2-0.8,1.2-12-0.7-15.4c-0.7-1.2-2.6-1.7-1.7-4.6c0.8,0.2,1.2,0.4,2.1,0.2
			c0.1,0.1,0.8,0.8,1,0.9c2,0.8,1.3-1.4,1.4-1.6C20.2,40.8,22.8,39,22.8,41.3z"/>
		<path class="st1" d="M20.8,61.1c0.1,0,1.1,0.1,1.2,0.2c0.1,0,0.1,0,0.2,0c-0.3,1,1.2,2.6,1.2,0.9c2,1.9,0.3,2.4-1.7,2.2
			C20.6,63.5,18,61.4,20.8,61.1z"/>
		<path class="st1" d="M23.4,62.1c-0.1,1.8-1.5,0.2-1.2-0.9C22.9,61.4,23,61.7,23.4,62.1z"/>
		<path class="st4" d="M21.9,60.5c0.1,0.2,0.2,0.5,0.2,0.7c-0.1,0-1.2-0.2-1.2-0.2c0.2-0.3,0.4-0.7,0.4-0.7
			C21.3,60.4,21.4,60.6,21.9,60.5z"/>
	</g>
	<g>
		<path class="st5" d="M17.8,42.1c-0.7,1.5-1.8,2.1-2,0C16.7,42.3,17.4,41.7,17.8,42.1z"/>
		<path class="st5" d="M22.4,41.6c0.2,1.6-0.3,2.7-1.6,1.1C21.5,42.4,21.8,41.5,22.4,41.6z"/>
		<g>
			<path class="st5" d="M16.6,31.8c1.2,3,5,6.7,8,7.9c-0.9,4.5-1.8,1.8-2,1.8c-0.1,0-0.1,0.7-1.9,1.3c0.4,3-2.4,3.3-1.4,0.1
				c-0.7-0.3-0.9-0.5-1.4-0.9c-0.4-0.4-1.2,0.2-2,0c0-0.1,0-0.2-0.1-0.1c1-4.9,0.3-6.4,0.4-11.1C16.4,31.8,16.6,31.8,16.6,31.8z"/>
			<path class="st5" d="M18.8,36c0.4-0.2,5.6,4.9,2.5,6C16.9,43.7,17.5,38.4,18.8,36z"/>
		</g>
	</g>
	<g>
		<path class="st6" d="M57.2,9.9c-0.7,2.2-0.3,4.5-0.6,6.8c-0.3,2.7-1.6,5.2,0.3,10c0.7,1.8,2.4,4.1,4.5,3.9
			c-1.5,3.1-2.7,6.3-4.2,9.4c-3.7-4.9,0.9-6.5-4.6-4.5c-0.8,2.7-1.2,5.5-1.5,8.3c-0.2,1.8,0,1.9,0,2C51,46.9,50.9,48,51,49.2
			c-0.4,1.5-0.4,1.5-0.7,3.1c0.2,1.9-0.1,10.5,0.3,11.3c-1,0.4-2.3,0.5-3.2,0c0.1-1.2,0.5-2.4,0.6-3.6c0.4-9.3-1.4-10.1-1.4-10.7
			c1.2-1.9-0.8-5.5-1.4-7.5c-1.1-3.8-0.7-4.4-0.8-5.3c0-0.1,0.1-0.4-0.1-0.4c-1.4,0.4-2.6,1.5-3.9,2.2c0-0.1,0-0.3-0.1-0.3
			c-3.9-0.9-7.8-2-11.3-3.9c0.2-0.6,0.4-1.3,0.7-1.8c0.7-1.5,1.8-2.8,3.1-3.8c1.7-1.3,4-2.2,5.8-3.4c1.4-0.9,7.8-5.7,7.4-7.4
			c-0.6-2.2-5,4.1-8.9,6.4c-10.8,6.5-10.5-4.1-11.2-6c-1.9-5.1-4.1,2-7.5,3.9c-4,2.1-5.7-0.4-5.3,1.5c0.2,0.7,2.4,1.3,3.9,2.5
			c1.9,1.6,6,6.8,6.1,9.3c0,0.6,0,1.3-0.6,1.7c0-0.3,0.3-0.6,0.3-0.9c-0.1-0.5-5.7-4.1-6.8-7c-0.3,0.1,0.1,1.5,0.2,1.8
			c-0.1,4.7,0.5,6.2-0.4,11.1c-1.4,6.9-3,7-3.1,7.4c-0.4,1.7,1,5,1,6c0,0.5-1.3,3.1,0.3,7.9c-1.2,0.3-2.7,0.6-3.8-0.1
			c0.2-2.3,0.5-4.7-0.8-6.7c0.5-4.5-2.4-7.1-3.5-11.1c1-5.9-0.9-11.6-1.3-17.4c-0.2-3.5,0.3-6.4,0.1-8.3c-0.2-2.3-1.4-4.5-0.6-7.3
			c1.3-4.3,5.4-2.1,10-1.8C27.2,11.7,44.6,12.8,57.2,9.9z"/>
		<path class="st7" d="M68.7,8.5c0,0.1-1,1.6,0,2c-0.6,0.4-0.1,1.3-0.1,1.5c-0.1,1.8-0.4,8.1,2.4,7c0.3,5.3-1.7,5-6.3,4.9
			c-1,2.3-2.2,4.4-3.3,6.6c-2.1,0.2-3.8-2.1-4.5-3.9c-1.8-4.7-0.5-7.3-0.3-10c0.2-2.3-0.1-4.6,0.6-6.8c0.7-0.2,1.5-0.5,2.2-0.7
			c1.1-0.3,1.8-1.2,3,0c-0.1,0.3-0.8,0.6-0.8,1.1c0,0,0.3,0.1,0.3,0.5c-2.2-0.6-1.6,0.6-1.7,1.4c-0.2,2.1,0,7.6,1.3,8.7
			c0,0.1,0,0.3,0,0.4c-0.2,1.5,0.2,2.3,1.9,2.5c0.8,0.1,4.9,0,5.6-0.3c0.9-0.3,1.1-1,1.2-1.8c0.4-3.4-1.5-2.2-3.2-3
			c-0.8-2,0.7-10.8,1.8-12.2c0.8,0.2,0,0.7-0.1,1.3C68.5,8.4,68.7,8.5,68.7,8.5z"/>
		<path class="st8" d="M70,3.7c0.5,1.1,0.5,1.1,1,2.1c-0.4,0.1-0.4-0.1-0.7,0c-0.8,0.2-0.7-0.4-1.5,0.7c-1.1,1.4-2.6,10.2-1.8,12.2
			c-1.1,0.1-2.3-0.1-3.4,0.1c0-2.1-0.2-4.2-0.4-6.3c-0.1-1.3-0.3-2.7-0.6-3.9c-0.3-1.1-0.6-2.7-2-3C60,5.2,60.6,4.3,61.1,4
			c1.2-0.6,0.5,0.3,0.8,0.6c0.1,0.1,0.6-0.2,0.6-0.1c0.3,0.5-1,2.1,1.9-0.2c1.5,2.3,1.4,0.1,1.5,0.1c0.1,0,1.9,1.5,2.1,1.3
			c0.2-0.2,0-0.9,0.1-1.1C68.2,4.5,68.6,5.4,70,3.7z"/>
		<path class="st6" d="M40.3,38.3c-0.7,0.4-1.4,1.1-2.2,1.4c-2.2,1-7,1.8-8.8-0.3c-0.9-1.1-0.9-3.1-0.7-4.4c0-0.2,0.2-0.7,0.3-1
			c3.5,1.9,7.4,3,11.3,3.9C40.4,38,40.3,38.2,40.3,38.3z"/>
		<path class="st2" d="M58.9,0.1c-2.3,1.8-1.1,4.9,1.9,3c0.6-0.4,0.6-0.8,0.6-0.8c0.5-0.3,1.2-1,1.6-1c0.7-1.5,0.7-0.3,1.3-0.3
			c0.1,0,1.1-0.9,1.1-0.8c0.7,0.1-0.9,1.1,2.1,0.6c0.3,0.8,0.7,0.6,1.9,1.5c0,0,0.1,0.5,0.6,0.8c2.5,1.6,3.9-0.2,2.3-2.8
			c1.8,1.3,0.9,5.1-2.4,3.5c-1.4,1.7-1.7,0.8-1.8,0.9c-0.1,0.2,0.1,0.9-0.1,1.1c-0.2,0.2-2-1.3-2.1-1.3c-0.1,0-0.1,2.2-1.5-0.1
			c-2.9,2.3-1.6,0.7-1.9,0.2c-0.1-0.1-0.5,0.2-0.6,0.1c-0.3-0.3,0.4-1.2-0.8-0.6c-0.3-0.9-1.1,0.5-2.6,0.1
			C56.9,3.7,57.3,0.3,58.9,0.1z"/>
		<g>
			<path class="st7" d="M59.6,5.7c0.3,0.6,0,1,0,1.5c-4.3,4.3-9.8-2-7.4-3.5C54,2.6,59,4.4,59.6,5.7z"/>
			<path class="st7" d="M71.4,7.7c-0.3-0.3-1.3-1.7-1.1-1.8c0.3-0.1,0.3,0.1,0.7,0c0.3-0.1,1.9-2,4.8-2.1
				C83.3,3.4,75.6,11.9,71.4,7.7z"/>
		</g>
		<path class="st6" d="M71.1,12.3c-0.1,1.7-0.1,3.4-0.6,5c0.2,0.9,0.2,0.9,0.4,1.8c-2.8,1.1-2.5-5.3-2.4-7c0.5,0.4,1.5,0.3,1.8-0.1
			C70.8,12.1,70.8,12.1,71.1,12.3z"/>
		<path class="st0" d="M22.5,37c0.6,0.4,3.7,2.1,4.2,2.2c-0.1,1.4-1.3,0.8-2.1,0.4c-3-1.2-6.8-4.8-8-7.9c0.3-0.7,0.5,0.5,1,1.1
			C18.7,34.3,21,36.1,22.5,37z"/>
		<path class="st0" d="M60.6,5.7c1.3,0.2,1.7,1.8,2,3c-0.3,0-0.1,0.4-0.1,0.6c-1.1-1.2-1.8-0.3-3,0c-0.1-0.7,0.1-1.3,0.1-2
			c0-0.6,0.3-0.9,0-1.5C59.9,6,60.1,5.6,60.6,5.7z"/>
		<path class="st9" d="M61.4,2.2c0,0-0.1,0.5-0.6,0.8c-3,1.9-4.2-1.1-1.9-3C59,0,59,0,59.2,0C59.3,0.3,58.7,2.3,61.4,2.2z"/>
		<path class="st9" d="M72.4,0.2C74,2.8,72.5,4.6,70.1,3c-0.6-0.4-0.6-0.8-0.6-0.8C72.7,1.9,71.4-0.5,72.4,0.2z"/>
		<path class="st6" d="M70.3,5.8c-0.2,0.1,0.9,1.6,1.1,1.8c-0.3,0.6-0.1,1.6-0.1,2.4c-0.8-0.7-1.1-2.1-2.5-1.5c0,0-0.3-0.1-0.1-0.6
			c0.1-0.6,0.9-1.2,0.1-1.3C69.6,5.4,69.5,6,70.3,5.8z"/>
		<path class="st7" d="M71.2,10c0,0.8-0.1,1.5-0.1,2.2c-0.4-0.2-0.4-0.2-0.7-0.4c0.7-1.2-0.8-2-1.7-1.4c-1-0.4,0-1.9,0-2
			C70.2,7.9,70.4,9.3,71.2,10z"/>
		<g>
			<path class="st1" d="M14.5,63.7c1,0.4,3.2,1.6,1.2,2.2c-1.9,0.6-5,0-5.6-2.2C12.3,63.7,12.3,63.7,14.5,63.7z"/>
			<path class="st2" d="M13.9,63.3c0.1,0,0.5,0.4,0.6,0.4c-2.2,0-2.2,0-4.4,0c0,0-0.3,0,0-0.6C11.2,63.9,12.7,63.6,13.9,63.3z"/>
		</g>
		<path class="st6" d="M22.5,36.9c0,0.1,0,0.1,0,0.1c-1.5-1-3.8-2.8-4.9-4.1c-0.5-0.6-0.6-1.7-1-1.1c0,0-0.2,0-0.4-1
			c-0.1-0.3-0.5-1.7-0.2-1.8c1.2,2.8,6.7,6.5,6.8,7C22.8,36.3,22.5,36.6,22.5,36.9z"/>
		<g>
			<path class="st10" d="M28.7,35.1c-0.2,1.3-0.2,3.3,0.7,4.4c-0.4,0.3-2.3,0-2.7-0.1c-0.5-0.1-3.6-1.9-4.2-2.2c0-0.1,0-0.1,0-0.1
				c0.6-0.4,0.6-1.1,0.6-1.7C25.8,37,26.1,34.4,28.7,35.1z"/>
			<g>
				<path class="st8" d="M57.2,40c-0.6,1.2-0.9,2.6-2,3.5c-1.2-0.8-1.7,1.8-4,0.3c0.3-2.8,0.7-5.6,1.5-8.3
					C58.1,33.5,53.5,35.1,57.2,40z"/>
				<path class="st11" d="M45.1,41.8c-3.7,0.5-4.3-4.4-0.8-5.3C44.4,37.4,44,38,45.1,41.8z"/>
			</g>
			<path class="st8" d="M32.7,28.5c-0.5,0.3-0.5-0.3-0.6-0.3c-0.8,0-3.7,4.3-3.7,5.1c0,1.1,0.8-1.1,1.3-1.1
				c-0.3,0.5-0.6,1.2-0.7,1.8c-0.1,0.3-0.3,0.8-0.3,1c-2.6-0.7-2.8,1.9-5.6,0.1c-0.1-2.5-4.2-7.7-6.1-9.3c-1.4-1.2-3.7-1.8-3.9-2.5
				c-0.5-1.9,1.3,0.7,5.3-1.5c3.5-1.9,5.6-8.9,7.5-3.9c0.7,1.9,0.3,12.5,11.2,6c3.9-2.3,8.3-8.6,8.9-6.4c0.4,1.6-6,6.5-7.4,7.4
				C36.8,26.3,34.5,27.1,32.7,28.5z"/>
			<path class="st8" d="M32.7,28.5c-1.3,1-2.4,2.3-3.1,3.8c-0.5,0-1.3,2.1-1.3,1.1c0-0.8,3-5.1,3.7-5.1
				C32.3,28.2,32.3,28.8,32.7,28.5z"/>
		</g>
		<path class="st6" d="M63.1,12.6c0.2,2.1,0.4,4.2,0.4,6.3c-1.1,0.3-1.8,0.8-2.1,2c-1.2-1.1-1.5-6.6-1.3-8.7
			c0.5,0.5,1.5,0.4,1.8-0.1C61.8,12.7,62.3,12.3,63.1,12.6z"/>
		<path class="st7" d="M63.1,12.6c-0.8-0.3-1.3,0.1-1.1-0.6c0.3-0.6-0.1-1-0.1-1.3c0-0.4-0.3-0.4-0.3-0.5c0-0.4,0.8-0.7,0.8-1.1
			c0.1-0.2-0.1-0.6,0.1-0.6C62.8,9.9,62.9,11.3,63.1,12.6z"/>
		<g>
			<path class="st5" d="M69,21.6c0.3-2.3-1.6-0.5-0.6,0.3c0.5,0.4,0.6-0.1,0.8-0.1c0.1,0,0.1,0.6,0.9,0c-0.1,0.8-0.3,1.5-1.2,1.8
				c-0.7,0.3-4.8,0.4-5.6,0.3c-1.7-0.2-2.1-1-1.9-2.5c0.6-0.1,0.4,1.6,2.2,0.8c0.6-0.3,0.3-0.7,0.4-0.7c0-0.6-0.1-0.7-0.1-0.8
				c-0.1-0.3-0.2-0.5-0.3-0.8c0.5-0.1,5.3-0.1,5.6,0C69.5,19.9,69.9,20.8,69,21.6z"/>
			<path class="st12" d="M66.9,18.8c1.7,0.7,3.6-0.5,3.2,3c-0.8,0.6-0.8,0-0.9,0c-0.2,0-0.2,0.6-0.8,0.1c0.2,0,0.4-0.2,0.6-0.3
				c1-0.8,0.5-1.7,0.1-1.8c-0.3-0.1-5.1-0.1-5.6,0c-1,0.1-1.4,0.3-0.8,1.3c0.3,0.6,0.7,1,1.3,0.4c0,0,0.3,0.4-0.4,0.7
				c-1.8,0.8-1.5-1-2.2-0.8c0-0.1,0-0.3,0-0.4c0.3-1.2,1-1.7,2.1-2C64.6,18.6,65.8,18.9,66.9,18.8z"/>
			<path class="st7" d="M63.8,20.6c0,0.1,0.2,0.2,0.1,0.8C63.3,22,63,21.6,62.7,21C62.7,20.4,63.4,20.4,63.8,20.6z"/>
			<path class="st13" d="M63.5,19.7c0.1,0.3,0.2,0.6,0.3,0.8c-0.4-0.2-1.1-0.2-1.1,0.4C62.1,20,62.5,19.9,63.5,19.7z"/>
			<path class="st7" d="M69,21.6c-0.1,0.1-0.3,0.3-0.6,0.3C67.4,21.1,69.3,19.3,69,21.6z"/>
		</g>
		<g>
			<path class="st14" d="M70.4,11.9c-0.3,0.5-1.4,0.6-1.8,0.1c0-0.2-0.4-1.1,0.1-1.5C69.6,9.9,71.1,10.7,70.4,11.9z"/>
			<path class="st7" d="M69.8,10.7c0.7-0.2,0.9,1,0.3,1.1C69.4,12,69.2,10.8,69.8,10.7z"/>
		</g>
		<g>
			<path class="st14" d="M61.8,10.8c0,0.3,0.5,0.7,0.1,1.3c-0.3,0.5-1.4,0.6-1.8,0.1C60.2,11.3,59.6,10.1,61.8,10.8z"/>
			<path class="st7" d="M61.3,11c0.6-0.1,0.7,0.9,0.3,1C61,12.1,60.7,11.1,61.3,11z"/>
		</g>
	</g>
	<path class="st0" d="M2.9,12.3c-0.4,0.2-0.7,0.6-0.9,1c-1.3,2.3-1.6,5.1-1.3,7.7s1.1,5.2,1.7,7.8c1.2,5,1.8,10.2,1.8,15.3
		c0.3-0.2,0.6-0.3,1-0.2c0.5-8.7-3.6-17.2-3.5-26c0-1.4,0.3-3,1.4-3.7c0.4-0.3,1-0.4,1.3-0.7C5.3,12.6,3.7,11.8,2.9,12.3z"/>
	<path class="st2" d="M4.7,43.4c3.1,0-2.2,4.4-2.5,4.8c-0.8,1.6,0.4,2.9-0.8,2.6c-0.7-0.2-0.6-1.7-0.6-1.8c-0.1-0.1-1.4,0.5-0.6-2.1
		c0.3-0.8,1.1-1,1.1-1.1c0-0.1-0.8-0.4-0.8-0.4C0.5,45.2,4.4,43.3,4.7,43.4z"/>
	<g>
		<path class="st1" d="M47.2,64.1c1.1,0.1,2.9,0.4,3.9-0.1c1.6,0.6,3.7,2.2,0.6,2.6C49.7,66.8,47.5,66.5,47.2,64.1z"/>
		<path class="st4" d="M51.1,64c-0.9,0.5-2.7,0.3-3.9,0.1c0-0.1-0.1-0.1-0.1-0.4c1.2,0.3,2.5,0.5,3.6-0.1
			C50.9,63.7,50.9,63.7,51.1,64z"/>
	</g>
</g>
</svg>
