<?xml version="1.0" encoding="utf-8"?>
<!-- Generator: Adobe Illustrator 28.1.0, SVG Export Plug-In . SVG Version: 6.00 Build 0)  -->
<svg version="1.1" id="Layer_1" xmlns="http://www.w3.org/2000/svg" xmlns:xlink="http://www.w3.org/1999/xlink" x="0px" y="0px"
	 viewBox="0 0 79 66.6" style="enable-background:new 0 0 79 66.6;" xml:space="preserve">
<style type="text/css">
	.st0{fill:#0C0605;}
	.st1{fill:#1D0907;}
	.st2{fill:#843B13;}
	.st3{fill:#575254;}
	.st4{fill:#9A4616;}
	.st5{fill:#E9AC96;}
	.st6{fill:#342523;}
	.st7{fill:#010101;}
	.st8{fill:#FCF9ED;}
	.st9{fill:#FCDC7D;}
	.st10{fill:#D5C6A8;}
	.st11{fill:#A25D3C;}
	.st12{fill:#F4CAAC;}
	.st13{fill:#C07366;}
	.st14{fill:#DFE0E1;}
</style>
<g>
	<g>
		<path class="st0" d="M22.8,42.2c-1,3.5,0,3.6,0,3.8c0,0.3-0.5,1-0.4,1.4c0,0.1,1,1.2,1,1.4c0.3,1.3,0,11.5-0.4,12.6
			c1.1,0.3,2.2,0.5,3.3,0c0-0.6-1-6.9-0.4-10.9c0.2-1.3,1.3-2.2,1.3-2.6c0-0.4-0.5-0.9-0.4-1.2c0.1-0.3,3-1.3,1.9-6.1
			C27.8,43.8,24,44.2,22.8,42.2z"/>
		<g>
			<path class="st1" d="M26.2,62c-1.1,0.1-3,0.7-3.6-0.1c-2,1-3.6,2.2-0.9,2.6C23.6,64.8,26,64.2,26.2,62z"/>
			<path class="st2" d="M22.9,61.6c-0.1,0.1-0.1,0.1-0.3,0.3c0.6,0.9,2.5,0.3,3.6,0.1c0-0.1,0-0.3,0-0.4
				C25.2,62.1,24,61.9,22.9,61.6z"/>
			<path class="st3" d="M21.3,63.3c-0.4-0.1-0.5,0.8-0.1,0.2C21.3,63.4,21.4,63.4,21.3,63.3z"/>
		</g>
	</g>
	<g>
		<path class="st0" d="M56.2,41.3c0,0.7,1.5,2.6,1.6,3c0.3,1.7-0.2,14.1-0.7,16.2c0.5,0.1,0.6-0.2,0.6-0.2c0,0,0.2,0.4,0.4,0.7
			c2.9,0.3,0.2,2.5-0.9,3.3c1.4-0.1,3.3-1.2,3.6-2.7c0.2-0.8-1.2-12,0.7-15.4c0.7-1.2,2.6-1.7,1.7-4.6c-0.8,0.2-1.2,0.4-2.1,0.2
			c-0.1,0.1-0.8,0.8-1,0.9c-2,0.8-1.3-1.4-1.4-1.6C58.7,40.8,56.2,39,56.2,41.3z"/>
		<path class="st1" d="M58.1,61.1c-0.1,0-1.1,0.1-1.2,0.2c-0.1,0-0.1,0-0.2,0c0.3,1-1.2,2.6-1.2,0.9c-2,1.9-0.3,2.4,1.7,2.2
			C58.3,63.5,61,61.4,58.1,61.1z"/>
		<path class="st1" d="M55.5,62.1c0.1,1.8,1.5,0.2,1.2-0.9C56.1,61.4,55.9,61.7,55.5,62.1z"/>
		<path class="st4" d="M57.1,60.5c-0.1,0.2-0.2,0.5-0.2,0.7c0.1,0,1.2-0.2,1.2-0.2c-0.2-0.3-0.4-0.7-0.4-0.7
			C57.7,60.4,57.6,60.6,57.1,60.5z"/>
	</g>
	<g>
		<path class="st5" d="M61.1,42.1c0.7,1.5,1.8,2.1,2,0C62.3,42.3,61.6,41.7,61.1,42.1z"/>
		<path class="st5" d="M56.6,41.6c-0.2,1.6,0.3,2.7,1.6,1.1C57.4,42.4,57.2,41.5,56.6,41.6z"/>
		<g>
			<path class="st5" d="M62.4,31.8c-1.2,3-5,6.7-8,7.9c0.9,4.5,1.8,1.8,2,1.8c0.1,0,0.1,0.7,1.9,1.3c-0.4,3,2.4,3.3,1.4,0.1
				c0.7-0.3,0.9-0.5,1.4-0.9c0.4-0.4,1.2,0.2,2,0c0-0.1,0-0.2,0.1-0.1c-1-4.9-0.3-6.4-0.4-11.1C62.6,31.8,62.4,31.8,62.4,31.8z"/>
			<path class="st5" d="M60.2,36c-0.4-0.2-5.6,4.9-2.5,6C62.1,43.7,61.5,38.4,60.2,36z"/>
		</g>
	</g>
	<g>
		<path class="st6" d="M21.8,9.9c0.7,2.2,0.3,4.5,0.6,6.8c0.3,2.7,1.6,5.2-0.3,10c-0.7,1.8-2.4,4.1-4.5,3.9c1.5,3.1,2.7,6.3,4.2,9.4
			c3.7-4.9-0.9-6.5,4.6-4.5c0.8,2.7,1.2,5.5,1.5,8.3c0.2,1.8,0,1.9,0,2c0.1,1.2,0.2,2.3,0.1,3.4c0.4,1.5,0.4,1.5,0.7,3.1
			c-0.2,1.9,0.1,10.5-0.3,11.3c1,0.4,2.3,0.5,3.2,0c-0.1-1.2-0.5-2.4-0.6-3.6c-0.4-9.3,1.4-10.1,1.4-10.7c-1.2-1.9,0.8-5.5,1.4-7.5
			c1.1-3.8,0.7-4.4,0.8-5.3c0-0.1-0.1-0.4,0.1-0.4c1.4,0.4,2.6,1.5,3.9,2.2c0-0.1,0-0.3,0.1-0.3c3.9-0.9,7.8-2,11.3-3.9
			c-0.2-0.6-0.4-1.3-0.7-1.8c-0.7-1.5-1.8-2.8-3.1-3.8c-1.7-1.3-4-2.2-5.8-3.4c-1.4-0.9-7.8-5.7-7.4-7.4c0.6-2.2,5,4.1,8.9,6.4
			c10.8,6.5,10.5-4.1,11.2-6c1.9-5.1,4.1,2,7.5,3.9c4,2.1,5.7-0.4,5.3,1.5c-0.2,0.7-2.4,1.3-3.9,2.5c-1.9,1.6-6,6.8-6.1,9.3
			c0,0.6,0,1.3,0.6,1.7c0-0.3-0.3-0.6-0.3-0.9c0.1-0.5,5.7-4.1,6.8-7c0.3,0.1-0.1,1.5-0.2,1.8c0.1,4.7-0.5,6.2,0.4,11.1
			c1.4,6.9,3,7,3.1,7.4c0.4,1.7-1,5-1,6c0,0.5,1.3,3.1-0.3,7.9c1.2,0.3,2.7,0.6,3.8-0.1c-0.2-2.3-0.5-4.7,0.8-6.7
			c-0.5-4.5,2.4-7.1,3.5-11.1c-1-5.9,0.9-11.6,1.3-17.4c0.2-3.5-0.3-6.4-0.1-8.3c0.2-2.3,1.4-4.5,0.6-7.3c-1.3-4.3-5.4-2.1-10-1.8
			C51.8,11.7,34.4,12.8,21.8,9.9z"/>
		<path class="st7" d="M10.3,8.5c0,0.1,1,1.6,0,2c0.6,0.4,0.1,1.3,0.1,1.5c0.1,1.8,0.4,8.1-2.4,7c-0.3,5.3,1.7,5,6.3,4.9
			c1,2.3,2.2,4.4,3.3,6.6c2.1,0.2,3.8-2.1,4.5-3.9c1.8-4.7,0.5-7.3,0.3-10c-0.2-2.3,0.1-4.6-0.6-6.8c-0.7-0.2-1.5-0.5-2.2-0.7
			c-1.1-0.3-1.8-1.2-3,0c0.1,0.3,0.8,0.6,0.8,1.1c0,0-0.3,0.1-0.3,0.5c2.2-0.6,1.6,0.6,1.7,1.4c0.2,2.1,0,7.6-1.3,8.7
			c0,0.1,0,0.3,0,0.4c0.2,1.5-0.2,2.3-1.9,2.5c-0.8,0.1-4.9,0-5.6-0.3c-0.9-0.3-1.1-1-1.2-1.8c-0.4-3.4,1.5-2.2,3.2-3
			c0.8-2-0.7-10.8-1.8-12.2c-0.8,0.2,0,0.7,0.1,1.3C10.5,8.4,10.2,8.5,10.3,8.5z"/>
		<path class="st8" d="M9,3.7C8.5,4.8,8.5,4.8,8,5.8c0.4,0.1,0.4-0.1,0.7,0C9.5,6,9.4,5.4,10.3,6.5c1.1,1.4,2.6,10.2,1.8,12.2
			c1.1,0.1,2.3-0.1,3.4,0.1c0-2.1,0.2-4.2,0.4-6.3c0.1-1.3,0.3-2.7,0.6-3.9c0.3-1.1,0.6-2.7,2-3C19,5.2,18.3,4.3,17.8,4
			c-1.2-0.6-0.5,0.3-0.8,0.6c-0.1,0.1-0.6-0.2-0.6-0.1c-0.3,0.5,1,2.1-1.9-0.2c-1.5,2.3-1.4,0.1-1.5,0.1c-0.1,0-1.9,1.5-2.1,1.3
			c-0.2-0.2,0-0.9-0.1-1.1C10.7,4.5,10.4,5.4,9,3.7z"/>
		<path class="st6" d="M38.6,38.3c0.7,0.4,1.4,1.1,2.2,1.4c2.2,1,7,1.8,8.8-0.3c0.9-1.1,0.9-3.1,0.7-4.4c0-0.2-0.2-0.7-0.3-1
			c-3.5,1.9-7.4,3-11.3,3.9C38.6,38,38.6,38.2,38.6,38.3z"/>
		<path class="st2" d="M20.1,0.1c2.3,1.8,1.1,4.9-1.9,3c-0.6-0.4-0.6-0.8-0.6-0.8c-0.5-0.3-1.2-1-1.6-1c-0.7-1.5-0.7-0.3-1.3-0.3
			c-0.1,0-1.1-0.9-1.1-0.8c-0.7,0.1,0.9,1.1-2.1,0.6c-0.3,0.8-0.7,0.6-1.9,1.5c0,0-0.1,0.5-0.6,0.8C6.4,4.6,5,2.8,6.6,0.2
			C4.8,1.5,5.7,5.3,9,3.7c1.4,1.7,1.7,0.8,1.8,0.9c0.1,0.2-0.1,0.9,0.1,1.1c0.2,0.2,2-1.3,2.1-1.3c0.1,0,0.1,2.2,1.5-0.1
			c2.9,2.3,1.6,0.7,1.9,0.2c0.1-0.1,0.5,0.2,0.6,0.1c0.3-0.3-0.4-1.2,0.8-0.6c0.3-0.9,1.1,0.5,2.6,0.1C22.1,3.7,21.7,0.3,20.1,0.1z"
			/>
		<g>
			<path class="st7" d="M19.4,5.7c-0.3,0.6,0,1,0,1.5c4.3,4.3,9.8-2,7.4-3.5C24.9,2.6,19.9,4.4,19.4,5.7z"/>
			<path class="st7" d="M7.6,7.7C7.8,7.4,8.9,6,8.7,5.8C8.4,5.8,8.4,6,8,5.8c-0.3-0.1-1.9-2-4.8-2.1C-4.3,3.4,3.3,11.9,7.6,7.7z"/>
		</g>
		<path class="st6" d="M7.9,12.3c0.1,1.7,0.1,3.4,0.6,5C8.2,18.2,8.2,18.2,8,19c2.8,1.1,2.5-5.3,2.4-7c-0.5,0.4-1.5,0.3-1.8-0.1
			C8.2,12.1,8.2,12.1,7.9,12.3z"/>
		<path class="st0" d="M56.5,37c-0.6,0.4-3.7,2.1-4.2,2.2c0.1,1.4,1.3,0.8,2.1,0.4c3-1.2,6.8-4.8,8-7.9c-0.3-0.7-0.5,0.5-1,1.1
			C60.3,34.3,58,36.1,56.5,37z"/>
		<path class="st0" d="M18.4,5.7c-1.3,0.2-1.7,1.8-2,3c0.3,0,0.1,0.4,0.1,0.6c1.1-1.2,1.8-0.3,3,0c0.1-0.7-0.1-1.3-0.1-2
			c0-0.6-0.3-0.9,0-1.5C19.1,6,18.9,5.6,18.4,5.7z"/>
		<path class="st9" d="M17.6,2.2c0,0,0.1,0.5,0.6,0.8c3,1.9,4.2-1.1,1.9-3c-0.1,0-0.1,0-0.3-0.1C19.7,0.3,20.3,2.3,17.6,2.2z"/>
		<path class="st9" d="M6.6,0.2C5,2.8,6.4,4.6,8.9,3c0.6-0.4,0.6-0.8,0.6-0.8C6.2,1.9,7.5-0.5,6.6,0.2z"/>
		<path class="st6" d="M8.7,5.8C8.9,6,7.8,7.4,7.6,7.7C7.8,8.3,7.7,9.3,7.7,10c0.8-0.7,1.1-2.1,2.5-1.5c0,0,0.3-0.1,0.1-0.6
			c-0.1-0.6-0.9-1.2-0.1-1.3C9.4,5.4,9.5,6,8.7,5.8z"/>
		<path class="st7" d="M7.7,10c0,0.8,0.1,1.5,0.1,2.2c0.4-0.2,0.4-0.2,0.7-0.4c-0.7-1.2,0.8-2,1.7-1.4c1-0.4,0-1.9,0-2
			C8.8,7.9,8.6,9.3,7.7,10z"/>
		<g>
			<path class="st1" d="M64.5,63.7c-1,0.4-3.2,1.6-1.2,2.2c1.9,0.6,5,0,5.6-2.2C66.7,63.7,66.7,63.7,64.5,63.7z"/>
			<path class="st2" d="M65.1,63.3c-0.1,0-0.5,0.4-0.6,0.4c2.2,0,2.2,0,4.4,0c0,0,0.3,0,0-0.6C67.8,63.9,66.3,63.6,65.1,63.3z"/>
		</g>
		<path class="st6" d="M56.5,36.9c0,0.1,0,0.1,0,0.1c1.5-1,3.8-2.8,4.9-4.1c0.5-0.6,0.6-1.7,1-1.1c0,0,0.2,0,0.4-1
			c0.1-0.3,0.5-1.7,0.2-1.8c-1.2,2.8-6.7,6.5-6.8,7C56.1,36.3,56.5,36.6,56.5,36.9z"/>
		<g>
			<path class="st10" d="M50.3,35.1c0.2,1.3,0.2,3.3-0.7,4.4c0.4,0.3,2.3,0,2.7-0.1c0.5-0.1,3.6-1.9,4.2-2.2c0-0.1,0-0.1,0-0.1
				c-0.6-0.4-0.6-1.1-0.6-1.7C53.1,37,52.9,34.4,50.3,35.1z"/>
			<g>
				<path class="st8" d="M21.8,40c0.6,1.2,0.9,2.6,2,3.5c1.2-0.8,1.7,1.8,4,0.3c-0.3-2.8-0.7-5.6-1.5-8.3
					C20.8,33.5,25.5,35.1,21.8,40z"/>
				<path class="st11" d="M33.9,41.8c3.7,0.5,4.3-4.4,0.8-5.3C34.5,37.4,34.9,38,33.9,41.8z"/>
			</g>
			<path class="st8" d="M46.2,28.5c0.5,0.3,0.5-0.3,0.6-0.3c0.8,0,3.7,4.3,3.7,5.1c0,1.1-0.8-1.1-1.3-1.1c0.3,0.5,0.6,1.2,0.7,1.8
				c0.1,0.3,0.3,0.8,0.3,1c2.6-0.7,2.8,1.9,5.6,0.1c0.1-2.5,4.2-7.7,6.1-9.3c1.4-1.2,3.7-1.8,3.9-2.5c0.5-1.9-1.3,0.7-5.3-1.5
				c-3.5-1.9-5.6-8.9-7.5-3.9c-0.7,1.9-0.3,12.5-11.2,6c-3.9-2.3-8.3-8.6-8.9-6.4c-0.4,1.6,6,6.5,7.4,7.4
				C42.2,26.3,44.5,27.1,46.2,28.5z"/>
			<path class="st8" d="M46.2,28.5c1.3,1,2.4,2.3,3.1,3.8c0.5,0,1.3,2.1,1.3,1.1c0-0.8-3-5.1-3.7-5.1C46.7,28.2,46.7,28.8,46.2,28.5
				z"/>
		</g>
		<path class="st6" d="M15.9,12.6c-0.2,2.1-0.4,4.2-0.4,6.3c1.1,0.3,1.8,0.8,2.1,2c1.2-1.1,1.5-6.6,1.3-8.7
			c-0.5,0.5-1.5,0.4-1.8-0.1C17.1,12.7,16.6,12.3,15.9,12.6z"/>
		<path class="st7" d="M15.9,12.6c0.8-0.3,1.3,0.1,1.1-0.6c-0.3-0.6,0.1-1,0.1-1.3c0-0.4,0.3-0.4,0.3-0.5c0-0.4-0.8-0.7-0.8-1.1
			c-0.1-0.2,0.1-0.6-0.1-0.6C16.1,9.9,16,11.3,15.9,12.6z"/>
		<g>
			<path class="st5" d="M10,21.6c-0.3-2.3,1.6-0.5,0.6,0.3c-0.5,0.4-0.6-0.1-0.8-0.1c-0.1,0-0.1,0.6-0.9,0c0.1,0.8,0.3,1.5,1.2,1.8
				c0.7,0.3,4.8,0.4,5.6,0.3c1.7-0.2,2.1-1,1.9-2.5c-0.6-0.1-0.4,1.6-2.2,0.8c-0.6-0.3-0.3-0.7-0.4-0.7c0-0.6,0.1-0.7,0.1-0.8
				c0.1-0.3,0.2-0.5,0.3-0.8c-0.5-0.1-5.3-0.1-5.6,0C9.4,19.9,9,20.8,10,21.6z"/>
			<path class="st12" d="M12.1,18.8c-1.7,0.7-3.6-0.5-3.2,3c0.8,0.6,0.8,0,0.9,0c0.2,0,0.2,0.6,0.8,0.1c-0.2,0-0.4-0.2-0.6-0.3
				c-1-0.8-0.5-1.7-0.1-1.8c0.3-0.1,5.1-0.1,5.6,0c1,0.1,1.4,0.3,0.8,1.3c-0.3,0.6-0.7,1-1.3,0.4c0,0-0.3,0.4,0.4,0.7
				c1.8,0.8,1.5-1,2.2-0.8c0-0.1,0-0.3,0-0.4c-0.3-1.2-1-1.7-2.1-2C14.4,18.6,13.1,18.9,12.1,18.8z"/>
			<path class="st7" d="M15.2,20.6c0,0.1-0.2,0.2-0.1,0.8c0.6,0.6,0.9,0.2,1.3-0.4C16.2,20.4,15.6,20.4,15.2,20.6z"/>
			<path class="st13" d="M15.4,19.7c-0.1,0.3-0.2,0.6-0.3,0.8c0.4-0.2,1.1-0.2,1.1,0.4C16.8,20,16.5,19.9,15.4,19.7z"/>
			<path class="st7" d="M10,21.6c0.1,0.1,0.3,0.3,0.6,0.3C11.6,21.1,9.7,19.3,10,21.6z"/>
		</g>
		<g>
			<path class="st14" d="M8.6,11.9c0.3,0.5,1.4,0.6,1.8,0.1c0-0.2,0.4-1.1-0.1-1.5C9.4,9.9,7.8,10.7,8.6,11.9z"/>
			<path class="st7" d="M9.1,10.7c-0.7-0.2-0.9,1-0.3,1.1C9.5,12,9.7,10.8,9.1,10.7z"/>
		</g>
		<g>
			<path class="st14" d="M17.1,10.8c0,0.3-0.5,0.7-0.1,1.3c0.3,0.5,1.4,0.6,1.8,0.1C18.7,11.3,19.3,10.1,17.1,10.8z"/>
			<path class="st7" d="M17.7,11c-0.6-0.1-0.7,0.9-0.3,1C17.9,12.1,18.2,11.1,17.7,11z"/>
		</g>
	</g>
	<path class="st0" d="M76.1,12.3c0.4,0.2,0.7,0.6,0.9,1c1.3,2.3,1.6,5.1,1.3,7.7c-0.3,2.6-1.1,5.2-1.7,7.8c-1.2,5-1.8,10.2-1.8,15.3
		c-0.3-0.2-0.6-0.3-1-0.2c-0.5-8.7,3.6-17.2,3.5-26c0-1.4-0.3-3-1.4-3.7c-0.4-0.3-1-0.4-1.3-0.7C73.7,12.6,75.2,11.8,76.1,12.3z"/>
	<path class="st2" d="M74.3,43.4c-3.1,0,2.2,4.4,2.5,4.8c0.8,1.6-0.4,2.9,0.8,2.6c0.7-0.2,0.6-1.7,0.6-1.8c0.1-0.1,1.4,0.5,0.6-2.1
		c-0.3-0.8-1.1-1-1.1-1.1c0-0.1,0.8-0.4,0.8-0.4C78.4,45.2,74.6,43.3,74.3,43.4z"/>
	<g>
		<path class="st1" d="M31.7,64.1c-1.1,0.1-2.9,0.4-3.9-0.1c-1.6,0.6-3.7,2.2-0.6,2.6C29.3,66.8,31.4,66.5,31.7,64.1z"/>
		<path class="st4" d="M27.8,64c0.9,0.5,2.7,0.3,3.9,0.1c0-0.1,0.1-0.1,0.1-0.4c-1.2,0.3-2.5,0.5-3.6-0.1
			C28.1,63.7,28.1,63.7,27.8,64z"/>
	</g>
</g>
</svg>
